<?xml version="1.0" encoding="utf-8"?>
<!-- Generator: Adobe Illustrator 21.0.0, SVG Export Plug-In . SVG Version: 6.00 Build 0)  -->
<svg version="1.1" id="图层_1" xmlns="http://www.w3.org/2000/svg" xmlns:xlink="http://www.w3.org/1999/xlink" x="0px" y="0px"
	 viewBox="0 0 640 640" style="enable-background:new 0 0 640 640;" xml:space="preserve">
<style type="text/css">
	.st0{fill:#C4BBAA;}
	.st1{fill:#FFFFFF;}
	.st2{fill:#2B2B2B;}
	.st3{opacity:0.5;fill:none;stroke:#FFFFFF;stroke-miterlimit:10;stroke-dasharray:12;}
	.st4{fill:#191919;}
</style>
<g>
	<path class="st0" d="M319.9,628c-82.3,0-159.6-32-217.8-90.2C43.9,479.6,11.9,402.3,11.9,320c0-82.3,32-159.6,90.2-217.8
		C160.3,44,237.6,12,319.9,12s159.6,32,217.8,90.2c58.2,58.2,90.2,135.5,90.2,217.8c0,82.3-32,159.6-90.2,217.8
		C479.5,596,402.1,628,319.9,628z"/>
	<path class="st1" d="M319.9,23c164,0,297,133,297,297s-133,297-297,297s-297-133-297-297S155.8,23,319.9,23 M319.9,1
		C276.8,1,235,9.4,195.7,26.1c-38,16.1-72.1,39.1-101.4,68.4C65,123.7,42,157.8,25.9,195.8C9.3,235.2,0.9,276.9,0.9,320
		s8.4,84.8,25.1,124.2c16.1,38,39.1,72.1,68.4,101.4c29.3,29.3,63.4,52.3,101.4,68.4C235,630.6,276.8,639,319.9,639
		s84.8-8.4,124.2-25.1c38-16.1,72.1-39.1,101.4-68.4c29.3-29.3,52.3-63.4,68.4-101.4c16.6-39.3,25.1-81.1,25.1-124.2
		s-8.4-84.8-25.1-124.2c-16.1-38-39.1-72.1-68.4-101.4C516.1,65.1,482,42.1,444,26.1C404.7,9.4,362.9,1,319.9,1L319.9,1z"/>
</g>
<path class="st2" d="M320,299c0,0-261,37.1-240.9,208.2c0,0-90.3-86.5-69-231.7c26.1-148.1,123-221.7,213-245L320,299z"/>
<path class="st3" d="M45.6,462.4c0,0-2.1-130.9,187.9-180.9"/>
<path class="st4" d="M617,351C629,142,476.8,15,319.9,15C80,23,15,202,7,311c0.5,0.1,79.7-25.7,161-24c54.5,1.1,118.7,8.5,152,12
	c64,3,119.2,2,179,13C564.6,324,616.2,351.1,617,351z"/>
<path class="st3" d="M10,275.5c0,0,55.5-32,139.5-32s94,20,170,25s87-14,161-7s136.4,41.8,136.4,41.8"/>
<g>
	<path class="st1" d="M320,23c164,0,297,133,297,297S484,617,320,617S23,484,23,320S156,23,320,23 M320,1
		c-43.1,0-84.8,8.4-124.2,25.1c-38,16.1-72.1,39.1-101.4,68.4c-29.3,29.3-52.3,63.4-68.4,101.4C9.4,235.2,1,276.9,1,320
		s8.4,84.8,25.1,124.2c16.1,38,39.1,72.1,68.4,101.4c29.3,29.3,63.4,52.3,101.4,68.4C235.2,630.6,276.9,639,320,639
		s84.8-8.4,124.2-25.1c38-16.1,72.1-39.1,101.4-68.4c29.3-29.3,52.3-63.4,68.4-101.4C630.6,404.8,639,363.1,639,320
		s-8.4-84.8-25.1-124.2c-16.1-38-39.1-72.1-68.4-101.4c-29.3-29.3-63.4-52.3-101.4-68.4C404.8,9.4,363.1,1,320,1L320,1z"/>
</g>
</svg>
