<?xml version="1.0" encoding="utf-8"?>
<!-- Generator: Adobe Illustrator 21.0.0, SVG Export Plug-In . SVG Version: 6.00 Build 0)  -->
<svg version="1.1" xmlns="http://www.w3.org/2000/svg" xmlns:xlink="http://www.w3.org/1999/xlink" x="0px" y="0px"
	 viewBox="0 0 640 640" style="enable-background:new 0 0 640 640;" xml:space="preserve">
<style type="text/css">
	.st0{fill:#394B59;}
	.st1{fill:#FFFFFF;}
</style>
<g id="图层_2">
	<g>
		<path class="st0" d="M320,630c-82.8,0-160.7-32.2-219.2-90.8C42.2,480.7,10,402.8,10,320s32.2-160.7,90.8-219.2S237.2,10,320,10
			s160.7,32.2,219.2,90.8C597.8,159.3,630,237.2,630,320c0,82.8-32.2,160.7-90.8,219.2C480.7,597.8,402.8,630,320,630z"/>
		<path class="st1" d="M320,20c40.5,0,79.8,7.9,116.8,23.6c35.7,15.1,67.8,36.7,95.4,64.3c27.6,27.6,49.2,59.6,64.3,95.4
			c15.6,37,23.6,76.3,23.6,116.8s-7.9,79.8-23.6,116.8c-15.1,35.7-36.7,67.8-64.3,95.4c-27.6,27.6-59.6,49.2-95.4,64.3
			c-37,15.6-76.3,23.6-116.8,23.6s-79.8-7.9-116.8-23.6c-35.7-15.1-67.8-36.7-95.4-64.3c-27.6-27.6-49.2-59.6-64.3-95.4
			C27.9,399.8,20,360.5,20,320s7.9-79.8,23.6-116.8c15.1-35.7,36.7-67.8,64.3-95.4c27.6-27.6,59.6-49.2,95.4-64.3
			C240.2,27.9,279.5,20,320,20 M320,0C143.3,0,0,143.3,0,320s143.3,320,320,320s320-143.3,320-320S496.7,0,320,0L320,0z"/>
	</g>
</g>
<g id="图层_1">
	<g>
		<path class="st1" d="M244.2,210h-76.7v298.3h66.7V338.6c0-21.4-0.6-37.3-1.9-47.6h1.1c3.3,6.2,8.5,14.3,15.8,24.3l131.9,182v-96.9
			c-0.7-0.9-1.3-1.9-2-2.8L244.2,210z"/>
		<polygon class="st1" points="394.3,210 394.3,379.8 393.9,379.8 393.9,419 393.9,467.3 393.9,508.3 461,508.3 461,210 		"/>
	</g>
	<circle class="st1" cx="426.2" cy="143.7" r="33.1"/>
</g>
</svg>
